HIERARCHY
ROOT Hips
{
	OFFSET	0.00	0.00	0.00
	CHANNELS 6 Xposition Yposition Zposition Zrotation Xrotation Yrotation
	JOINT LeftUpLeg
	{
		OFFSET	 0.126116	-0.014019	-0.065224
		CHANNELS 3 Zrotation Xrotation Yrotation
		JOINT LeftLeg
		{
			OFFSET	 0.000000	 0.000000	 0.569914
			CHANNELS 3 Zrotation Xrotation Yrotation
			JOINT LeftFoot
			{
				OFFSET	 0.000000	 0.000000	 0.544423
				CHANNELS 3 Zrotation Xrotation Yrotation
				JOINT LeftToeBase
				{
					OFFSET	 0.000000	 0.000000	 0.207117
					CHANNELS 3 Zrotation Xrotation Yrotation
					End Site
					{
						OFFSET	 0.000000	 0.000000	 0.207117
					}
				}
			}
		}
	}
	JOINT RightUpLeg
	{
		OFFSET	-0.124023	-0.008373	-0.065224
		CHANNELS 3 Zrotation Xrotation Yrotation
		JOINT RightLeg
		{
			OFFSET	 0.000000	 0.000000	 0.570047
			CHANNELS 3 Zrotation Xrotation Yrotation
			JOINT RightFoot
			{
				OFFSET	 0.000000	 0.000000	 0.544354
				CHANNELS 3 Zrotation Xrotation Yrotation
				JOINT RightToeBase
				{
					OFFSET	 0.000000	 0.000000	 0.207540
					CHANNELS 3 Zrotation Xrotation Yrotation
					End Site
					{
						OFFSET	 0.000000	 0.000000	 0.207540
					}
				}
			}
		}
	}
	JOINT Spine
	{
		OFFSET	 0.000184	-0.007763	 0.117403
		CHANNELS 3 Zrotation Xrotation Yrotation
		JOINT Spine1
		{
			OFFSET	 0.000000	 0.000000	 0.137269
			CHANNELS 3 Zrotation Xrotation Yrotation
			JOINT Spine2
			{
				OFFSET	 0.000000	 0.000000	 0.156879
				CHANNELS 3 Zrotation Xrotation Yrotation
				JOINT LeftShoulder
				{
					OFFSET	 0.080501	-0.002496	 0.160144
					CHANNELS 3 Zrotation Xrotation Yrotation
					JOINT LeftArm
					{
						OFFSET	 0.000000	 0.000000	 0.164363
						CHANNELS 3 Zrotation Xrotation Yrotation
						JOINT LeftForeArm
						{
							OFFSET	 0.000000	 0.000000	 0.364576
							CHANNELS 3 Zrotation Xrotation Yrotation
							JOINT LeftHand
							{
								OFFSET	 0.000000	 0.000000	 0.360812
								CHANNELS 3 Zrotation Xrotation Yrotation
								JOINT LeftHandIndex1
								{
									OFFSET	 0.000000	 0.000000	 0.086006
									CHANNELS 3 Zrotation Xrotation Yrotation
									JOINT LeftHandIndex2
									{
										OFFSET	 0.000000	 0.000000	 0.047237
										CHANNELS 3 Zrotation Xrotation Yrotation
										JOINT LeftHandIndex3
										{
											OFFSET	-0.004284	-0.000551	 0.038165
											CHANNELS 3 Zrotation Xrotation Yrotation
											End Site
											{
												OFFSET	-0.004284	-0.000551	 0.038165
											}
										}
									}
								}
							}
						}
					}
				}
				JOINT Neck
				{
					OFFSET	 0.000000	 0.000000	 0.176489
					CHANNELS 3 Zrotation Xrotation Yrotation
					JOINT Head
					{
						OFFSET	 0.000000	-0.001747	 0.077940
						CHANNELS 3 Zrotation Xrotation Yrotation
						End Site
						{
							OFFSET	 0.000000	-0.001747	 0.077940
						}
					}
				}
				JOINT RightShoulder
				{
					OFFSET	-0.080363	 0.000306	 0.159706
					CHANNELS 3 Zrotation Xrotation Yrotation
					JOINT RightArm
					{
						OFFSET	 0.000000	 0.000000	 0.164196
						CHANNELS 3 Zrotation Xrotation Yrotation
						JOINT RightForeArm
						{
							OFFSET	 0.000000	 0.000000	 0.365611
							CHANNELS 3 Zrotation Xrotation Yrotation
							JOINT RightHand
							{
								OFFSET	 0.000000	 0.000000	 0.360648
								CHANNELS 3 Zrotation Xrotation Yrotation
								JOINT RightHandIndex1
								{
									OFFSET	 0.000000	 0.000000	 0.069977
									CHANNELS 3 Zrotation Xrotation Yrotation
									JOINT RightHandIndex2
									{
										OFFSET	 0.000000	 0.000000	 0.052305
										CHANNELS 3 Zrotation Xrotation Yrotation
										JOINT RightHandIndex3
										{
											OFFSET	 0.009002	-0.000782	 0.042196
											CHANNELS 3 Zrotation Xrotation Yrotation
											End Site
											{
												OFFSET	 0.009002	-0.000782	 0.042196
											}
										}
									}
								}
							}
						}
					}
				}
			}
		}
	}
}
MOTION
Frames:    7
Frame Time: 0.03333334
-0.717945	-0.031784	 1.269462	 169.448300	-10.945120	-0.997857	-28.793040	 1.279537	-166.560300	-1.971886	-28.616690	-1.646936	 13.483860	 74.543750	-28.219650	-2.385833	 28.452760	 0.000004	 3.419937	 2.355706	-178.623000	 10.275400	-33.480980	 5.835508	-75.732690	 81.863700	 77.845260	 2.384659	 28.388700	-0.000001	 12.520940	 8.954056	-12.694780	 5.184207	 5.762197	-5.747644	 8.776086	 1.908129	 7.726517	-91.776220	 78.527380	-180.000000	-12.805970	 50.201260	-19.843890	-24.716640	 20.418020	-72.372410	-41.031690	-41.252350	-23.892120	-4.130354	 21.526190	 0.991307	-5.167926	 0.731697	 3.519349	-1.378229	 35.397820	-2.634230	 14.557360	 5.914495	-2.587959	 8.422454	-13.320780	-2.315275	 89.782100	 78.203890	 180.000000	-49.100380	 4.522382	 92.714000	 10.782860	 1.299046	 130.626100	 11.927500	-1.891766	 4.294728	 5.716295	 19.173350	-3.684826	 5.027458	 0.246833	-9.377971	-2.350882	 35.473990	 5.254307
-0.717848	-0.032990	 1.268639	 168.828400	-11.001590	-0.363042	-29.291290	 1.124850	-166.630500	-1.676526	-28.780900	-1.513019	 12.751430	 74.081060	-27.779540	-2.385833	 28.452760	 0.000004	 2.817710	 2.055727	-178.571000	 10.626120	-33.535750	 6.042380	-74.150170	 82.113680	 75.895390	 2.384659	 28.388700	-0.000001	 14.118890	 8.355110	-14.411270	 5.988426	 7.192594	-5.897505	 9.155935	-0.261328	 9.749684	-91.776220	 78.527430	-180.000000	-20.973530	 45.030110	-19.656350	-24.105340	 21.280420	-74.586010	-42.727710	-41.669060	-24.988600	-4.130354	 21.526190	 0.991307	-5.167926	 0.731697	 3.519349	-1.378229	 35.397820	-2.634230	 14.915290	 5.166797	-3.937996	 8.211636	-14.311850	-4.358225	 89.782070	 78.203870	-180.000000	-50.132420	 3.715760	 94.024140	 11.667360	 0.284955	 128.872300	 8.036677	-0.371171	 5.503684	 5.716295	 19.173350	-3.684826	 5.027458	 0.246833	-9.377971	-2.350882	 35.473990	 5.254307
-0.716691	-0.033736	 1.267679	 168.426800	-10.846910	-0.278923	-30.067870	 0.659154	-166.380600	-1.434024	-28.619100	-1.388823	 12.533690	 73.693830	-27.748360	-2.385833	 28.452760	 0.000004	 2.226728	 1.543999	-178.127400	 10.945370	-33.753200	 6.258639	-73.732580	 82.418770	 75.213290	 2.384659	 28.388700	-0.000001	 15.522540	 7.268747	-14.745970	 6.893640	 8.705452	-5.630223	 9.559312	-2.263134	 9.994685	-91.776110	 78.527350	 179.999900	-28.370550	 41.308670	-22.347300	-24.091830	 21.621770	-74.841590	-44.463020	-42.218340	-26.185870	-4.130354	 21.526190	 0.991307	-5.167926	 0.731697	 3.519349	-1.378229	 35.397820	-2.634230	 15.093540	 5.433541	-4.544739	 8.158340	-15.946030	-4.401735	 89.782100	 78.203850	 180.000000	-49.566640	 2.674430	 95.098270	 12.505040	-0.799679	 127.244300	 4.322918	 0.380688	 6.123525	 5.716295	 19.173350	-3.684826	 5.027458	 0.246833	-9.377971	-2.350882	 35.473990	 5.254307
-0.715828	-0.033978	 1.267209	 168.042800	-10.613870	-0.453210	-30.837460	 0.412778	-166.147800	-1.224848	-28.198420	-1.271106	 11.971620	 73.250400	-27.279480	-2.385833	 28.452760	 0.000004	 1.705343	 1.017017	-177.764000	 11.243810	-34.137460	 6.492817	-76.595540	 82.645100	 77.912780	 2.384659	 28.388700	-0.000001	 16.994890	 6.076182	-14.865120	 7.975884	 9.754210	-5.557915	 9.856206	-3.772156	 10.195200	-91.776090	 78.527350	 179.999900	-33.782950	 38.790040	-27.097370	-24.538610	 21.719170	-73.772060	-45.876890	-42.624390	-27.028400	-4.130354	 21.526190	 0.991307	-5.167926	 0.731697	 3.519349	-1.378229	 35.397820	-2.634230	 15.160280	 5.827812	-4.953150	 8.161990	-17.530250	-4.322795	 89.782120	 78.203900	 180.000000	-48.293550	 1.786056	 96.118390	 13.377740	-2.066341	 125.635300	 0.769333	 0.975412	 6.262713	 5.716295	 19.173350	-3.684826	 5.027458	 0.246833	-9.377971	-2.350882	 35.473990	 5.254307
-0.717034	-0.033608	 1.267561	 167.621900	-10.438700	-0.437700	-31.694960	 0.373092	-165.882600	-0.970294	-27.870660	-1.138335	 11.899630	 72.996190	-27.385140	-2.385833	 28.452760	 0.000004	 1.131767	 0.905021	-177.497200	 11.512510	-34.107050	 6.642745	-78.674980	 82.827830	 79.778720	 2.384659	 28.388700	-0.000001	 18.553000	 4.982199	-15.397190	 9.144687	 10.763840	-6.267847	 10.166710	-5.126808	 10.999490	-91.776170	 78.527430	 180.000000	-37.601560	 36.944720	-33.440720	-25.741290	 21.477210	-70.591810	-47.023360	-42.975630	-27.534390	-4.130354	 21.526190	 0.991307	-5.167926	 0.731697	 3.519349	-1.378229	 35.397820	-2.634230	 15.090320	 5.762490	-5.186326	 8.115499	-18.607890	-4.542785	 89.782130	 78.203830	 180.000000	-47.054780	 0.506910	 97.004540	 14.279150	-3.608622	 123.461700	-3.332079	 1.795169	 6.901200	 5.716295	 19.173350	-3.684826	 5.027458	 0.246833	-9.377971	-2.350882	 35.473990	 5.254307
-0.719961	-0.032529	 1.268708	 167.245500	-10.275970	-0.110321	-32.606430	 0.400913	-165.761600	-0.670891	-27.820740	-0.996554	 12.725310	 73.167370	-28.389260	-2.385833	 28.452760	 0.000004	 0.380876	 1.002835	-177.427400	 11.776910	-33.717380	 6.727648	-79.464960	 82.951290	 80.397730	 2.384659	 28.388700	-0.000001	 20.200270	 3.568901	-16.196890	 10.619530	 11.665170	-7.894910	 10.405210	-6.132606	 12.049340	-91.776180	 78.527400	-180.000000	-39.989940	 36.075190	-40.471000	-27.197880	 20.906880	-66.531480	-48.085870	-43.454950	-27.905340	-4.130354	 21.526190	 0.991307	-5.167926	 0.731697	 3.519349	-1.378229	 35.397820	-2.634230	 14.774110	 5.377771	-5.021099	 7.932843	-19.312650	-5.023802	 89.782100	 78.203850	 180.000000	-45.283390	-1.018748	 98.118880	 15.025800	-5.378774	 120.247100	-7.890516	 2.351501	 7.630866	 5.716295	 19.173350	-3.684826	 5.027458	 0.246833	-9.377971	-2.350882	 35.473990	 5.254307
-0.723026	-0.031366	 1.270165	 167.039800	-9.942775	 0.297227	-33.038890	 0.137308	-166.035500	-0.494817	-27.885410	-0.916245	 12.757900	 72.800800	-28.343570	-2.385833	 28.452760	 0.000004	-0.195215	 0.428249	-177.482100	 12.087240	-33.732520	 6.908057	-81.116200	 83.145770	 82.018690	 2.384659	 28.388700	-0.000001	 21.715590	 1.699539	-17.038720	 12.133600	 12.371600	-9.315986	 10.450120	-6.913462	 12.944560	-91.776130	 78.527380	 180.000000	-40.103290	 35.197700	-46.591920	-28.458010	 20.232610	-62.826730	-48.242690	-43.728690	-27.528700	-4.130354	 21.526190	 0.991307	-5.167926	 0.731697	 3.519349	-1.378229	 35.397820	-2.634230	 14.332710	 5.407925	-4.757045	 7.602278	-20.590030	-5.932629	 89.782120	 78.203920	 180.000000	-42.617930	-1.807478	 99.819950	 15.317950	-7.003566	 116.116700	-11.549070	 2.741156	 7.878969	 5.716295	 19.173350	-3.684826	 5.027458	 0.246833	-9.377971	-2.350882	 35.473990	 5.254307
